<?xml version="1.0" standalone="no"?><!DOCTYPE svg PUBLIC "-//W3C//DTD SVG 1.1//EN" "http://www.w3.org/Graphics/SVG/1.1/DTD/svg11.dtd"><svg t="1640929166548" class="icon" viewBox="0 0 1024 1024" version="1.1" xmlns="http://www.w3.org/2000/svg" p-id="1698" xmlns:xlink="http://www.w3.org/1999/xlink" width="200" height="200"><defs><style type="text/css"></style></defs><path d="M456 64a8 8 0 0 0-8 8v57.336C341.582 140.332 254.974 218.082 230.763 320H168a8 8 0 0 0-8 8v48a8 8 0 0 0 8 8h56v128h-56a8 8 0 0 0-8 8v176a8 8 0 0 0 8 8h56v192h-56a8 8 0 0 0-8 8v48a8 8 0 0 0 8 8h688a8 8 0 0 0 8-8v-48a8 8 0 0 0-8-8h-56V704h56a8 8 0 0 0 8-8V520a8 8 0 0 0-8-8h-56V384h56a8 8 0 0 0 8-8v-48a8 8 0 0 0-8-8h-62.763C769.026 218.082 682.418 140.332 576 129.336V72a8 8 0 0 0-8-8H456z m56 738c-106.039 0-192-85.961-192-192s85.961-192 192-192 192 85.961 192 192-85.961 192-192 192z" fill="#969797" p-id="1699"></path><path d="M640 610c0 70.692-57.308 128-128 128-70.692 0-128-57.308-128-128 0-70.692 57.308-128 128-128 70.692 0 128 57.308 128 128z" fill="#969797" p-id="1700"></path></svg>