<?xml version="1.0" standalone="no"?><!DOCTYPE svg PUBLIC "-//W3C//DTD SVG 1.1//EN" "http://www.w3.org/Graphics/SVG/1.1/DTD/svg11.dtd"><svg t="1641816629656" class="icon" viewBox="0 0 1024 1024" version="1.1" xmlns="http://www.w3.org/2000/svg" p-id="1017" xmlns:xlink="http://www.w3.org/1999/xlink" width="200" height="200"><defs><style type="text/css"></style></defs><path d="M395.369628 225.925501h305.146131c13.203438 0 23.472779-10.269341 23.47278-23.472779 0-11.73639-8.802292-22.005731-20.538682-23.472779-2.934097-76.286533-61.616046-140.836676-139.369628-148.17192V17.604585c0-10.269341-7.335244-17.604585-17.604584-17.604585s-17.604585 7.335244-17.604585 17.604585V30.808023c-76.286533 8.802292-136.43553 71.885387-137.902579 149.638968-11.73639 1.467049-20.538682 11.73639-20.538682 23.47278 1.467049 11.73639 11.73639 22.005731 24.939829 22.00573zM701.982808 264.068768V236.194842H389.501433v29.340975h-14.670487V447.449857h14.670487v438.647564h312.481375V447.449857h14.670487V265.535817h-14.670487zM373.363897 935.977077H721.054441v-38.143266H373.363897zM297.077364 277.272206v-4.401146c0-1.467049-1.467049-7.335244-5.868195-7.335243-33.74212 0-58.681948 38.143266-58.681948 88.022922s26.406877 88.022923 60.148997 88.022923c4.401146 0 5.868195-4.401146 5.868195-7.335244 0-1.467049 0-2.934097-1.467049-4.401146V277.272206zM366.028653 440.114613V271.404011c0-14.670487-13.203438-26.406877-27.873925-26.406876-16.137536 0-27.873926 11.73639-27.873926 26.406876v167.243553c0 14.670487 13.203438 26.406877 27.873926 26.406877 14.670487 1.467049 27.873926-10.269341 27.873925-24.939828zM731.323782 944.77937H363.094556c-16.137536 0-30.808023 13.203438-30.808023 30.808023 0 16.137536 13.203438 30.808023 30.808023 30.808022h366.762178c16.137536 0 30.808023-13.203438 30.808022-30.808022 0-17.604585-13.203438-30.808023-29.340974-30.808023zM751.862464 244.997135c-16.137536 0-27.873926 11.73639-27.873925 26.406876v167.243553c0 14.670487 13.203438 26.406877 27.873925 26.406877 16.137536 0 27.873926-11.73639 27.873926-26.406877V271.404011c1.467049-14.670487-11.73639-26.406877-27.873926-26.406876zM800.275072 267.002865c-4.401146 0-8.802292 0-8.802293 8.802293v159.908309c0 8.802292 5.868195 8.802292 8.802293 8.802292 30.808023 0 57.2149-39.610315 57.214899-88.022922 0-49.879656-26.406877-89.489971-57.214899-89.489972z" fill="#b1fd2f" p-id="1018"></path></svg>