<?xml version="1.0" standalone="no"?><!DOCTYPE svg PUBLIC "-//W3C//DTD SVG 1.1//EN" "http://www.w3.org/Graphics/SVG/1.1/DTD/svg11.dtd"><svg t="1640914452196" class="icon" viewBox="0 0 1024 1024" version="1.1" xmlns="http://www.w3.org/2000/svg" p-id="4281" xmlns:xlink="http://www.w3.org/1999/xlink" width="200" height="200"><defs><style type="text/css"></style></defs><path d="M972.110701 459.803197c-4.526083-59.69252-20.843724-117.172653-48.500621-170.84404-27.65485-53.66627-64.993247-100.31266-110.978581-138.641617-44.416606-37.022195-94.988398-64.767096-150.312424-82.46313-55.323003-17.698081-112.608707-24.453948-170.266895-20.084431-59.694567 4.524037-117.173676 20.841677-170.841993 48.497551-53.668317 27.65485-100.316753 64.995293-138.644687 110.982674-37.021172 44.417629-64.766073 94.991468-82.461083 150.315494C82.41043 412.887678 75.654562 470.173382 80.026126 527.83157c4.526083 59.693544 20.842701 117.170606 48.496527 170.836877 27.656897 53.671387 64.99734 100.3188 110.982674 138.647757 44.416606 37.022195 94.988398 64.766073 150.311401 82.462107 55.32198 17.693987 112.606661 24.448832 170.263825 20.076244 59.693544-4.527107 117.172653-20.844747 170.841993-48.500621 53.66934-27.65485 100.31573-64.99427 138.644687-110.978581 37.023218-44.414559 64.768119-94.985328 82.464153-150.307308C969.726398 574.745043 976.482265 517.460362 972.110701 459.803197zM565.615617 146.910954c4.200672-18.650779 31.925107-38.385239 36.592406-37.109176 12.718673 3.476171 10.94733 1.429559 22.334681 8.513908 16.394389 10.200316 22.790052 24.270776 30.532387 27.140127 17.915022 6.640234 31.574113-0.971118 37.296441 0.413416 10.984169 2.657526 14.791891 9.051143 23.595394 21.406542 6.232958 8.748245 10.206456 13.945617 17.249873 19.928888 8.262174 7.016811 15.899108 10.595312 26.963095 11.879562 20.182668 2.341325 29.957289 31.968086 30.05041 38.71065 0.10847 7.888667 16.044418 21.079084 23.263843 24.64326 2.75781 1.360997 39.010479 5.759167 31.78696 41.934065-1.843998 9.232269-7.358595 29.060873-35.996842 42.669822 0 0-190.459796 63.23009-203.324802 70.603011l-42.938951-36.433794C557.855886 300.154128 551.41315 209.959919 565.615617 146.910954zM491.021711 458.276425l58.328453 0 0 56.281841-58.328453 0L491.021711 458.276425zM194.577069 290.547329c10.143011-22.251793 14.386662-18.012236 23.663956-24.518417 3.903913-2.738367 9.740852-3.347235 18.636452-8.063653 21.290909-11.287067 14.764262-26.044166 18.398022-37.117362 2.103918-6.411013 8.829086-14.048971 24.693402-19.123546 6.694469-2.14178 19.707854-5.564739 25.396413-9.695826 5.318122-3.861958 18.09103-9.787924 23.209608-23.836895 0 0 2.812045-6.928806 16.526395-13.487176 12.428054-5.943362 22.1116-4.988618 30.800493-2.99931 0 0 10.414187-0.066515 19.973914-5.874801 8.442276-5.129834 11.912307-13.210883 20.258393-20.819165 1.89721-1.729387 16.048511-19.518542 40.514739-3.202948 24.396643 12.33698 27.731598 43.912116 28.866445 45.841048 0 0 2.601244 213.497489 2.501984 214.544331l-47.62774 29.810956c0 0-102.351086-25.102724-166.159344-49.293683-23.557532-8.931416-41.205471-17.185404-46.590108-20.283975C206.286762 336.502987 191.704648 296.849872 194.577069 290.547329zM245.639025 745.885841c-1.601474-0.334621-17.266245-19.163455-17.322527-32.055067-0.047072-10.628058-1.307785-40.323381-31.410384-47.39852-5.854335-1.376347-9.139148-16.683984-9.704013-24.275893-0.807389-10.838859 2.475378-15.932878-1.447978-30.096459-6.251378-22.572088-11.963473-27.487028-15.189957-30.68486-4.854565-4.810562-15.186887-21.112853-0.830925-49.89334 0.820692-1.644453 7.133468-12.492522-2.457981-30.891568-8.054443-15.449877-14.810311-17.417695-14.178931-38.414915 6.715959-20.275789 27.941376-27.439956 30.29498-28.345582 26.903743-10.348696 67.910693 7.14677 50.265824 2.756787-1.549286-0.384763 114.825189 35.539424 114.825189 35.539424 7.893784 1.158383 67.943438 20.703531 75.571163 23.38971l13.68672 54.632271c0 0-39.672558 62.438051-49.169863 74.737168-9.270131 12.002358-53.899584 76.650751-64.338331 87.178525C303.777143 732.697471 289.43039 755.035222 245.639025 745.885841zM712.531688 804.993031c-1.154289 5.710049-3.659343 19.98824-7.569396 22.228257-21.813818 12.492522-42.045605 5.684466-42.045605 5.684466s-16.031115-6.186909-31.574113 3.529383c-11.383258 7.116071-14.988366 15.546068-14.988366 15.546068s-13.409404 8.330736-38.056758 0.638543c-19.22383-5.998621-46.597271-3.184529-52.082192 3.667529-8.045233 10.050913-41.84299-3.270487-47.704488-11.235902 0 0-15.371082-12.756535-45.353954-0.938372-9.380648 3.697205-32.184003 1.99647-38.175461-16.010649-0.7552-2.27174-10.450003-15.370059-6.580882-37.207413 3.362584-18.974144 16.875343-35.343973 16.875343-35.343973l103.537098-165.567873 56.30947 0.753153c0 0 74.470085 81.501222 96.398514 110.994953 10.397814 13.985526 35.874045 47.38317 43.447535 61.962214C714.025715 781.12953 715.006042 792.753265 712.531688 804.993031zM900.216277 545.761941c0 0-17.267269 34.288944-8.91709 48.572252 5.355985 9.162684-10.738575 39.951921-23.045879 43.842531-6.624884 2.094708-13.240559 20.817118-13.240559 20.817118l-0.24764 30.166043c0 0-3.197832 20.168342-25.640983 25.087375-33.106002 7.255241-55.144948-17.144472-55.144948-17.144472L630.061394 539.839045l15.777335-54.064336c0 0 167.183673-87.872327 219.011062-92.015693 0 0 24.920576-0.039909 45.652759 20.140713 9.202593 8.958022-4.2897 42.980907-4.2897 42.980907s-16.783245 19.475564 5.057179 49.426713C919.147442 517.107321 900.216277 545.761941 900.216277 545.761941z" p-id="4282" fill="#969797"></path></svg>